<svg width="165" height="50" viewBox="0 0 165 50" fill="none" xmlns="http://www.w3.org/2000/svg">
<path d="M18.2412 45.5785C14.3603 47.4592 3.40897 47.7058 3.40897 47.7058V31.7362C3.40897 28.7989 10.2871 25.9141 12.9948 25.8638C25.614 25.6323 30.0926 39.8358 18.2412 45.5785ZM16.7334 16.4665C16.671 22.3663 6.77918 25.0351 3.40897 28.918V10.7563C8.21763 10.5814 16.8087 9.5527 16.7334 16.4665ZM30.5166 32.1576C28.4339 26.6218 19.7923 23.8726 14.5582 24.0292L19.392 20.9791C20.586 20.2216 21.5804 19.1568 22.1243 17.8542C22.9751 15.8127 22.7685 13.5142 20.7926 11.8357C17.1219 8.72351 11.8865 9.03994 5.03252 9.12167H4.95137L0 9.12761V49.8532L2.20623 49.8906C7.18405 50.1162 14.9708 50.2568 21.4181 47.5012C28.0213 44.689 33.3866 39.7856 30.5166 32.1576Z" fill="white"/>
<path d="M70.1453 20.4072C68.5044 18.1749 66.6173 16.3795 64.4836 15.0202C62.3498 13.6609 60.1404 12.8486 57.8548 12.5829C54.5339 12.1971 51.6278 13.0427 49.1375 15.1198C46.6842 17.3096 45.2521 20.178 44.8409 23.7253C44.7665 24.3673 44.731 25.0317 44.7346 25.7184C44.7547 30.2912 46.1827 34.5764 49.0185 38.5735C50.6594 40.8058 52.5469 42.6016 54.6802 43.9605C56.814 45.3198 59.0234 46.1321 61.309 46.3978C64.6468 46.7859 67.5615 45.9321 70.0541 43.8372C71.2778 42.7692 72.2457 41.4953 72.9588 40.0155C73.6719 38.5356 74.1287 36.9311 74.3293 35.202C74.6042 32.8308 74.3913 30.3538 73.691 27.7703C72.9907 25.1869 71.8085 22.7322 70.1453 20.4072ZM46.2328 15.017C48.0314 13.0856 50.0772 11.6039 52.3687 10.5725C54.6606 9.54102 57.0693 9.02551 59.5951 9.02551C62.1032 9.02551 64.5032 9.54102 66.7951 10.5725C69.0871 11.6039 71.1324 13.0856 72.9314 15.017C74.7128 16.9676 76.0792 19.1853 77.0307 21.6702C77.9822 24.155 78.4577 26.7571 78.4577 29.4762C78.4577 32.2144 77.9822 34.8257 77.0307 37.3106C76.0792 39.7954 74.7128 42.0131 72.9314 43.9637C71.1324 45.8951 69.0871 47.3768 66.7951 48.4082C64.5032 49.4397 62.1032 49.9552 59.5951 49.9552C57.0693 49.9552 54.6606 49.4397 52.3687 48.4082C50.0772 47.3768 48.0314 45.8951 46.2328 43.9637C44.451 42.0131 43.0846 39.7954 42.1331 37.3106C41.1816 34.8257 40.7061 32.2144 40.7061 29.4762C40.7061 26.7571 41.1816 24.155 42.1331 21.6702C43.0846 19.1853 44.451 16.9676 46.2328 15.017Z" fill="white"/>
<path d="M125.375 9.25349L106.506 49.9553H105.851L87.0566 9.25349H93.5399L107.667 40.8694L122.327 9.25349H125.375Z" fill="white"/>
<path d="M135.57 9.1032H165V11.0775L141.129 10.9264V27.085L161.083 27.2357V28.7411L141.129 28.5905V48.1321L165 48.2827V49.9553H135.57V9.1032Z" fill="white"/>
<path d="M151.704 1.13603C151.704 1.7634 151.196 2.27205 150.57 2.27205C149.943 2.27205 149.435 1.7634 149.435 1.13603C149.435 0.508657 149.943 4.05312e-06 150.57 4.05312e-06C151.196 4.05312e-06 151.704 0.508657 151.704 1.13603Z" fill="white"/>
</svg>
