<svg width="473" height="96" viewBox="0 0 473 96" fill="none" xmlns="http://www.w3.org/2000/svg">
<path d="M67.9567 95H82.1225L51.5725 1H31.9265L1.37646 95H15.5423L22.1599 74.602H61.2733L67.9661 95H67.9567ZM26.5685 61.0002L41.5991 14.63L56.8083 61.0002H26.5685Z" stroke="#E5E5E5" stroke-width="2"/>
<path d="M96.1379 95V1H109.74V95H96.1379Z" stroke="#E5E5E5" stroke-width="2"/>
<path d="M130.758 95V1H143.1L177.175 71.6974L211.053 1H223.517V94.9342H210.592V30.6382L180.24 95H174.036L143.617 30.6382V95H130.758Z" stroke="#E5E5E5" stroke-width="2"/>
<path d="M279.118 76.7828L273.196 95H287.362L290.492 85.3462L287.719 82.5732C285.228 80.0822 282.305 78.1364 279.118 76.7828Z" stroke="#E5E5E5" stroke-width="2"/>
<path d="M323.392 1H303.746L288.217 48.7802C292.231 50.0962 295.935 52.324 298.98 55.3696L299.911 56.3002L313.419 14.63L335.321 81.3982H326.663C319.454 81.3982 312.535 78.5312 307.431 73.4364L296.16 62.1658C293.256 59.2612 289.75 57.1086 285.943 55.7738C283.066 54.768 280.03 54.204 276.928 54.204H258.175V67.8058H271.288C274.785 67.8058 278.206 68.492 281.393 69.7704C284.777 71.124 287.898 73.145 290.52 75.777L301.782 87.0382C306.886 92.1424 313.804 95 321.014 95H353.933L323.392 1Z" stroke="#E5E5E5" stroke-width="2"/>
<path d="M367.958 95V1H381.559V95H367.958Z" stroke="#E5E5E5" stroke-width="2"/>
<path d="M465.633 50.444C469.459 45.0296 471.376 38.5718 471.376 31.0894C471.376 26.0416 470.502 21.4262 468.763 17.2526C467.024 13.079 464.402 9.6104 460.895 6.875C457.389 4.1302 453.028 2.3442 447.811 1.517C446.589 1.3008 445.31 1.1598 443.957 1.094C442.603 1.0282 441.475 1 440.563 1H402.568V95H416.208V61.0002H439.285L455.763 95H471.367L453.808 58.9792C458.818 57.2778 462.757 54.4954 465.624 50.444H465.633ZM416.217 13.8592H440.046C440.92 13.8592 441.879 13.9062 442.951 13.9908C444.013 14.0754 445.028 14.254 445.987 14.5172C448.769 15.1658 451.016 16.3784 452.708 18.1362C454.409 19.894 455.622 21.9244 456.365 24.2086C457.107 26.4928 457.474 28.7864 457.474 31.0988C457.474 33.4112 457.107 35.7142 456.365 38.0172C455.622 40.3296 454.409 42.36 452.708 44.1178C451.007 45.8756 448.769 47.0882 445.987 47.7368C445.028 47.953 444.013 48.1034 442.951 48.1974C441.879 48.282 440.92 48.329 440.046 48.329H416.217V13.8592Z" stroke="#E5E5E5" stroke-width="2"/>
</svg>
