<svg width="792" height="111" viewBox="0 0 792 111" fill="none" xmlns="http://www.w3.org/2000/svg">
<path d="M71.8182 -9.15527e-05V93.0908H57.8182V11.9999H14V93.0908H-4.76837e-06V-9.15527e-05H71.8182ZM87.0845 119.273V23.2726H100.357V34.5908H101.494C102.282 33.1363 103.418 31.4545 104.903 29.5454C106.388 27.6363 108.448 25.9696 111.085 24.5454C113.721 23.0908 117.206 22.3635 121.539 22.3635C127.175 22.3635 132.206 23.7878 136.63 26.6363C141.054 29.4848 144.524 33.5908 147.039 38.9545C149.585 44.3181 150.857 50.7726 150.857 58.3181C150.857 65.8635 149.6 72.3332 147.085 77.7272C144.569 83.0908 141.115 87.2272 136.721 90.1363C132.327 93.0151 127.312 94.4545 121.675 94.4545C117.433 94.4545 113.963 93.7423 111.266 92.3181C108.6 90.8939 106.509 89.2272 104.994 87.3181C103.478 85.409 102.312 83.712 101.494 82.2272H100.675V119.273H87.0845ZM100.403 58.1817C100.403 63.0908 101.115 67.3938 102.539 71.0908C103.963 74.7878 106.024 77.6817 108.721 79.7726C111.418 81.8332 114.721 82.8635 118.63 82.8635C122.691 82.8635 126.085 81.7878 128.812 79.6363C131.539 77.4545 133.6 74.4999 134.994 70.7726C136.418 67.0454 137.13 62.8484 137.13 58.1817C137.13 53.5757 136.433 49.4393 135.039 45.7726C133.675 42.106 131.615 39.212 128.857 37.0908C126.13 34.9696 122.721 33.909 118.63 33.909C114.691 33.909 111.357 34.9242 108.63 36.9545C105.933 38.9848 103.888 41.8181 102.494 45.4545C101.1 49.0908 100.403 53.3332 100.403 58.1817ZM190.374 94.4999C183.828 94.4999 178.116 92.9999 173.237 89.9999C168.358 86.9999 164.571 82.8029 161.874 77.409C159.177 72.0151 157.828 65.712 157.828 58.4999C157.828 51.2575 159.177 44.9242 161.874 39.4999C164.571 34.0757 168.358 29.8635 173.237 26.8635C178.116 23.8635 183.828 22.3635 190.374 22.3635C196.919 22.3635 202.631 23.8635 207.51 26.8635C212.389 29.8635 216.177 34.0757 218.874 39.4999C221.571 44.9242 222.919 51.2575 222.919 58.4999C222.919 65.712 221.571 72.0151 218.874 77.409C216.177 82.8029 212.389 86.9999 207.51 89.9999C202.631 92.9999 196.919 94.4999 190.374 94.4999ZM190.419 83.0908C194.662 83.0908 198.177 81.9696 200.965 79.7272C203.752 77.4848 205.813 74.4999 207.146 70.7726C208.51 67.0454 209.192 62.9393 209.192 58.4545C209.192 53.9999 208.51 49.909 207.146 46.1817C205.813 42.4242 203.752 39.409 200.965 37.1363C198.177 34.8635 194.662 33.7272 190.419 33.7272C186.146 33.7272 182.601 34.8635 179.783 37.1363C176.995 39.409 174.919 42.4242 173.555 46.1817C172.222 49.909 171.555 53.9999 171.555 58.4545C171.555 62.9393 172.222 67.0454 173.555 70.7726C174.919 74.4999 176.995 77.4848 179.783 79.7272C182.601 81.9696 186.146 83.0908 190.419 83.0908ZM262.379 94.4999C255.621 94.4999 249.803 92.9696 244.924 89.909C240.076 86.8181 236.348 82.5605 233.742 77.1363C231.136 71.712 229.833 65.4999 229.833 58.4999C229.833 51.409 231.167 45.1514 233.833 39.7272C236.5 34.2726 240.257 30.0151 245.106 26.9545C249.954 23.8938 255.667 22.3635 262.242 22.3635C267.545 22.3635 272.273 23.3484 276.424 25.3181C280.576 27.2575 283.924 29.9848 286.47 33.4999C289.045 37.0151 290.576 41.1211 291.06 45.8181H277.833C277.106 42.5454 275.439 39.7272 272.833 37.3635C270.257 34.9999 266.803 33.8181 262.47 33.8181C258.682 33.8181 255.363 34.8181 252.515 36.8181C249.697 38.7878 247.5 41.606 245.924 45.2726C244.348 48.909 243.56 53.212 243.56 58.1817C243.56 63.2726 244.333 67.6666 245.879 71.3635C247.424 75.0605 249.606 77.9242 252.424 79.9545C255.273 81.9848 258.621 82.9999 262.47 82.9999C265.045 82.9999 267.379 82.5302 269.47 81.5908C271.591 80.6211 273.363 79.2423 274.788 77.4545C276.242 75.6666 277.257 73.5151 277.833 70.9999H291.06C290.576 75.5151 289.106 79.5454 286.651 83.0908C284.197 86.6363 280.909 89.4242 276.788 91.4545C272.697 93.4848 267.894 94.4999 262.379 94.4999ZM295.19 34.9999V23.2726H354.1V34.9999H331.327V93.0908H318.054V34.9999H295.19ZM389.514 94.4999C382.968 94.4999 377.256 92.9999 372.377 89.9999C367.498 86.9999 363.711 82.8029 361.014 77.409C358.317 72.0151 356.968 65.712 356.968 58.4999C356.968 51.2575 358.317 44.9242 361.014 39.4999C363.711 34.0757 367.498 29.8635 372.377 26.8635C377.256 23.8635 382.968 22.3635 389.514 22.3635C396.059 22.3635 401.771 23.8635 406.65 26.8635C411.529 29.8635 415.317 34.0757 418.014 39.4999C420.711 44.9242 422.059 51.2575 422.059 58.4999C422.059 65.712 420.711 72.0151 418.014 77.409C415.317 82.8029 411.529 86.9999 406.65 89.9999C401.771 92.9999 396.059 94.4999 389.514 94.4999ZM389.559 83.0908C393.802 83.0908 397.317 81.9696 400.105 79.7272C402.892 77.4848 404.953 74.4999 406.286 70.7726C407.65 67.0454 408.332 62.9393 408.332 58.4545C408.332 53.9999 407.65 49.909 406.286 46.1817C404.953 42.4242 402.892 39.409 400.105 37.1363C397.317 34.8635 393.802 33.7272 389.559 33.7272C385.286 33.7272 381.741 34.8635 378.923 37.1363C376.135 39.409 374.059 42.4242 372.695 46.1817C371.362 49.909 370.695 53.9999 370.695 58.4545C370.695 62.9393 371.362 67.0454 372.695 70.7726C374.059 74.4999 376.135 77.4848 378.923 79.7272C381.741 81.9696 385.286 83.0908 389.559 83.0908ZM454.046 113.227V81.3181H459.728C461.183 79.9848 462.41 78.3938 463.41 76.5454C464.44 74.6969 465.304 72.4999 466.001 69.9545C466.728 67.409 467.334 64.4393 467.819 61.0454C468.304 57.6211 468.728 53.712 469.092 49.3181L471.274 23.2726H518.728V81.3181H529.455V113.227H516.183V93.0908H467.501V113.227H454.046ZM474.274 81.3181H505.455V34.909H483.455L482.001 49.3181C481.304 56.6514 480.425 63.0151 479.365 68.409C478.304 73.7726 476.607 78.0757 474.274 81.3181ZM547.847 47.2726H568.12C576.665 47.2726 583.241 49.3938 587.847 53.6363C592.453 57.8787 594.756 63.3484 594.756 70.0454C594.756 74.409 593.726 78.3332 591.665 81.8181C589.604 85.3029 586.589 88.0605 582.62 90.0908C578.65 92.0908 573.816 93.0908 568.12 93.0908H537.62V23.2726H550.938V81.3635H568.12C572.029 81.3635 575.241 80.3484 577.756 78.3181C580.271 76.2575 581.529 73.6363 581.529 70.4545C581.529 67.0908 580.271 64.3484 577.756 62.2272C575.241 60.0757 572.029 58.9999 568.12 58.9999H547.847V47.2726ZM604.665 93.0908V23.2726H618.256V93.0908H604.665ZM631.375 23.2726H644.693V81.3181H668.829V23.2726H682.147V81.3181H706.284V23.2726H719.602V93.0908H631.375V23.2726ZM745.948 74.0454L776.72 23.2726H791.357V93.0908H778.039V42.2726L747.402 93.0908H732.63V23.2726H745.948V74.0454Z" fill="#E5E5E5"/>
</svg>
