<svg xmlns="http://www.w3.org/2000/svg" version="1.1" xmlns:xlink="http://www.w3.org/1999/xlink" width="1000" height="1000"><style>
    #light-icon {
      display: inline;
    }
    #dark-icon {
      display: none;
    }

    @media (prefers-color-scheme: dark) {
      #light-icon {
        display: none;
      }
      #dark-icon {
        display: inline;
      }
    }
  </style><g id="light-icon"><svg xmlns="http://www.w3.org/2000/svg" version="1.1" xmlns:xlink="http://www.w3.org/1999/xlink" width="1000" height="1000"><g><g transform="matrix(6.756756756756757,0,0,6.756756756756757,182.4324324324324,0)"><svg xmlns="http://www.w3.org/2000/svg" version="1.1" xmlns:xlink="http://www.w3.org/1999/xlink" width="94" height="148"><svg width="94" height="148" viewBox="0 0 94 148" fill="none" xmlns="http://www.w3.org/2000/svg">
<path d="M85.1124 74.2134C84.4444 78.5627 83.2284 82.7574 81.4817 86.6281V86.6454C60.6084 123.735 25.9337 99.6761 24.7017 98.7854C24.6844 98.7681 24.6671 98.7681 24.6671 98.7681L24.6844 90.1214L24.8044 33.6827C35.7111 25.788 50.5231 22.8947 63.2631 27.9454C63.2631 27.9454 88.9311 36.1827 85.1124 74.2134ZM91.2937 54.7267C91.2591 54.6067 91.2084 54.4707 91.1737 54.3507C89.6844 48.8707 87.0817 43.956 83.6564 39.7947C83.6564 39.7787 83.6404 39.7614 83.6231 39.7441C83.6231 39.7267 83.5884 39.7094 83.5711 39.6921C70.3177 23.5107 44.9751 18.3227 24.5644 32.7067V5.67424e-05C23.4337 0.154723 22.3044 1.26805 21.3964 1.96939C20.2497 2.86005 13.6737 8.39071 13.4004 9.11071C13.2804 9.43605 13.1084 10.2227 13.5884 10.2574C15.4711 9.96671 17.1671 10.4627 17.7151 12.4667V37.8267C11.7564 44.9494 6.60172 52.3987 3.55372 61.2681C-8.92895 97.7067 12.5271 138.477 51.3964 144.043L51.4137 143.049C5.60839 137.621 -14.0663 79.3161 13.8284 44.1961C14.2724 43.6307 16.5844 40.6854 17.7151 40.1041V100.327C16.4991 102.449 13.6217 104.043 11.8417 104.591C10.8484 104.761 10.1124 104.829 9.97505 105.036C10.0604 104.967 10.1977 104.967 10.3684 104.967C10.1297 105.019 9.97505 105.036 9.97505 105.036C9.95772 105.069 9.94039 105.104 9.92439 105.139C9.90706 105.155 9.88972 105.172 9.88972 105.207V105.224C9.68439 105.617 9.82039 105.84 9.88972 105.909C9.88972 105.857 9.87239 105.755 9.87239 105.652C9.87239 105.755 9.88972 105.84 9.90705 105.943L24.5644 106.045V101.303L24.5991 101.32L30.5751 104.076C33.3311 105.447 40.0604 107.364 40.0777 107.364C40.0777 107.364 49.7524 110.139 59.3764 108.443C66.2591 107.381 71.5337 104.711 75.3351 101.919C75.3697 101.901 75.4031 101.868 75.4377 101.833C75.4551 101.833 75.4724 101.816 75.4897 101.799C75.6604 101.679 75.9337 101.456 76.3111 101.148C77.4244 100.224 79.3417 98.5281 81.5164 96.1307C81.5511 96.0974 81.5844 96.0627 81.6017 96.0281C88.4337 88.4254 97.5271 73.8881 91.2937 54.7267Z" fill="#331419"></path>
<path d="M61.3404 143.93C61.3404 145.999 59.663 147.677 57.5937 147.677C55.523 147.677 53.8457 145.999 53.8457 143.93C53.8457 141.861 55.523 140.183 57.5937 140.183C59.663 140.183 61.3404 141.861 61.3404 143.93Z" fill="#331419"></path>
</svg></svg></g></g></svg></g><g id="dark-icon"><svg xmlns="http://www.w3.org/2000/svg" version="1.1" xmlns:xlink="http://www.w3.org/1999/xlink" width="1000" height="1000"><g><g transform="matrix(6.756756756756757,0,0,6.756756756756757,182.4324324324324,0)"><svg xmlns="http://www.w3.org/2000/svg" version="1.1" xmlns:xlink="http://www.w3.org/1999/xlink" width="94" height="148"><svg width="94" height="148" viewBox="0 0 94 148" fill="none" xmlns="http://www.w3.org/2000/svg">
<path d="M85.1124 74.2134C84.4444 78.5627 83.2284 82.7574 81.4817 86.6281V86.6454C60.6084 123.735 25.9337 99.6761 24.7017 98.7854C24.6844 98.7681 24.6671 98.7681 24.6671 98.7681L24.6844 90.1214L24.8044 33.6827C35.7111 25.788 50.5231 22.8947 63.2631 27.9454C63.2631 27.9454 88.9311 36.1827 85.1124 74.2134ZM91.2937 54.7267C91.2591 54.6067 91.2084 54.4707 91.1737 54.3507C89.6844 48.8707 87.0817 43.956 83.6564 39.7947C83.6564 39.7787 83.6404 39.7614 83.6231 39.7441C83.6231 39.7267 83.5884 39.7094 83.5711 39.6921C70.3177 23.5107 44.9751 18.3227 24.5644 32.7067V5.67424e-05C23.4337 0.154723 22.3044 1.26805 21.3964 1.96939C20.2497 2.86005 13.6737 8.39071 13.4004 9.11071C13.2804 9.43605 13.1084 10.2227 13.5884 10.2574C15.4711 9.96671 17.1671 10.4627 17.7151 12.4667V37.8267C11.7564 44.9494 6.60172 52.3987 3.55372 61.2681C-8.92895 97.7067 12.5271 138.477 51.3964 144.043L51.4137 143.049C5.60839 137.621 -14.0663 79.3161 13.8284 44.1961C14.2724 43.6307 16.5844 40.6854 17.7151 40.1041V100.327C16.4991 102.449 13.6217 104.043 11.8417 104.591C10.8484 104.761 10.1124 104.829 9.97505 105.036C10.0604 104.967 10.1977 104.967 10.3684 104.967C10.1297 105.019 9.97505 105.036 9.97505 105.036C9.95772 105.069 9.94039 105.104 9.92439 105.139C9.90706 105.155 9.88972 105.172 9.88972 105.207V105.224C9.68439 105.617 9.82039 105.84 9.88972 105.909C9.88972 105.857 9.87239 105.755 9.87239 105.652C9.87239 105.755 9.88972 105.84 9.90705 105.943L24.5644 106.045V101.303L24.5991 101.32L30.5751 104.076C33.3311 105.447 40.0604 107.364 40.0777 107.364C40.0777 107.364 49.7524 110.139 59.3764 108.443C66.2591 107.381 71.5337 104.711 75.3351 101.919C75.3697 101.901 75.4031 101.868 75.4377 101.833C75.4551 101.833 75.4724 101.816 75.4897 101.799C75.6604 101.679 75.9337 101.456 76.3111 101.148C77.4244 100.224 79.3417 98.5281 81.5164 96.1307C81.5511 96.0974 81.5844 96.0627 81.6017 96.0281C88.4337 88.4254 97.5271 73.8881 91.2937 54.7267Z" fill="white"></path>
<path d="M61.3404 143.93C61.3404 145.999 59.663 147.677 57.5937 147.677C55.523 147.677 53.8457 145.999 53.8457 143.93C53.8457 141.861 55.523 140.183 57.5937 140.183C59.663 140.183 61.3404 141.861 61.3404 143.93Z" fill="white"></path>
</svg></svg></g></g></svg></g></svg>