<svg width="32" height="32" viewBox="0 0 32 32" fill="none" xmlns="http://www.w3.org/2000/svg">
<path d="M9.38399 6C8.06966 6.86875 6.93927 7.98782 6.05733 9.29333M4.24799 13.612C3.9412 15.156 3.9412 16.7453 4.24799 18.2893M5.99999 22.616C6.86875 23.9303 7.98781 25.0607 9.29333 25.9427M13.612 27.752C15.1526 28.0574 16.7381 28.0574 18.2787 27.752M22.616 26C23.9303 25.1312 25.0607 24.0122 25.9427 22.7067M27.752 18.388C28.0588 16.844 28.0588 15.2547 27.752 13.7107M26 9.384C25.1312 8.06967 24.0122 6.93928 22.7067 6.05733M18.388 4.248C16.8457 3.9324 15.2564 3.92334 13.7107 4.22133M16 10.6667L13.3333 16H18.6667L16 21.3333M16 28C19.1826 28 22.2348 26.7357 24.4853 24.4853C26.7357 22.2348 28 19.1826 28 16C28 12.8174 26.7357 9.76516 24.4853 7.51472C22.2348 5.26428 19.1826 4 16 4" stroke="black" stroke-width="2" stroke-linecap="round" stroke-linejoin="round"/>
</svg>
